<svg width="100" height="95" viewBox="0 0 100 95" fill="none" xmlns="http://www.w3.org/2000/svg">
<path d="M70.625 0C78.9583 0 85.9383 3.08333 91.565 9.25C97.1917 15.4167 100.003 22.75 100 31.25C100 32.75 99.9167 34.23 99.75 35.69C99.5833 37.15 99.2917 38.5867 98.875 40H67.625L59.25 27.25H50.25L43.5 48.75L37.625 40H1.125C0.708333 38.5833 0.416666 37.1467 0.25 35.69C0.0833331 34.2333 0 32.795 0 31.375C0 22.7917 2.79167 15.4167 8.375 9.25C13.9583 3.08333 20.9167 0 29.25 0C33.25 0 37.0217 0.791666 40.565 2.375C44.1083 3.95833 47.2533 6.16667 50 9C52.6667 6.16667 55.7717 3.95833 59.315 2.375C62.8583 0.791666 66.6283 0 70.625 0ZM49.875 94.75L8.5 53.125C8 52.625 7.54167 52.125 7.125 51.625C6.70833 51.125 6.29167 50.5833 5.875 50H32.25L40.875 62.875H49.75L56.5 41.25L62.25 50H94L92.75 51.5L91.5 53L49.875 94.75Z" fill="#CE922A"/>
</svg>
